<svg xmlns="http://www.w3.org/2000/svg" xmlns:xlink="http://www.w3.org/1999/xlink" width="500" height="500" viewBox="0 0 500 500"><defs><style>.a{clip-path:url(#h);}.b{fill:#fff;}.c{filter:url(#e);}.d{filter:url(#c);}.e{filter:url(#a);}</style><filter id="a" x="65.402" y="39.279" width="277.059" height="304.985" filterUnits="userSpaceOnUse"><feOffset dy="3" input="SourceAlpha"/><feGaussianBlur stdDeviation="3" result="b"/><feFlood flood-color="#7813dc" flood-opacity="0.161"/><feComposite operator="in" in2="b"/><feComposite in="SourceGraphic"/></filter><filter id="c" x="44" y="42.949" width="412.778" height="422.877" filterUnits="userSpaceOnUse"><feOffset dy="3" input="SourceAlpha"/><feGaussianBlur stdDeviation="3" result="d"/><feFlood flood-color="#7813dc" flood-opacity="0.161"/><feComposite operator="in" in2="d"/><feComposite in="SourceGraphic"/></filter><filter id="e" x="153.682" y="157.228" width="299.798" height="300.782" filterUnits="userSpaceOnUse"><feOffset dy="3" input="SourceAlpha"/><feGaussianBlur stdDeviation="3" result="f"/><feFlood flood-color="#7813dc" flood-opacity="0.161"/><feComposite operator="in" in2="f"/><feComposite in="SourceGraphic"/></filter><clipPath id="h"><rect width="500" height="500"/></clipPath></defs><g id="g" class="a"><g transform="translate(-64 -49.721)"><g transform="translate(117 95)"><g class="e" transform="matrix(1, 0, 0, 1, -53, -45.28)"><path class="b" d="M144.324,341.242v-216.3l.279-1.9.372-1.858.465-1.765.929-2.323.465-1.208.79-1.719.836-1.579.883-1.487,1.022-1.3,1.533-1.812L153.764,106l1.212-1.12,2.263-2.091,1.44-1.161,1.161-.929,1.812-1.254,2.09-1.208,2.137-1.115,2.671-1.254,2.021-.743,1.858-.627,1.51-.395,1.928-.418,2.276-.325,1.881-.116h3.229l1.858.116,141.456-.325,4.436.139,2.02.1h.6l.976.03,2.694.051,2.044.093,3.159.139,7.99.627,9.2,1.37,6.727,1.561,15.163,4.46,11,4.014,5.946,2.6,2.379,2.3,1.487,2.973v4.757l-1.487,2.725L356.16,167.809l-2.973,1.239h-2.24l-2.6-.5-2.6-.743-3.67-.995-3.163-.694-2.918-.541-4.874-.426-2.029-.052-3.835.052h-6.191l-11.714.426H251.605l-15.206.527-1.672.372-1.208,1.115-.557.929-.372,1.579-.062,74.762V288.1l-.619,2.106-.743,1.858-.743,1.363-1.239,1.858-1.115,1.858L226.953,299l-.743,1.734-1.115,1.858-.991,1.487-1.239,1.363-2.23,2.23-66.524,69.621-2.106,1.363-1.363.867-1.61.5h-1.363l-1.239-.5-1.115-.867-.991-1.363-.991-1.858Z" transform="translate(-68.93 -47.75)"/></g><g class="d" transform="matrix(1, 0, 0, 1, -53, -45.28)"><path class="b" d="M143.9,424.2,439.724,117.6l6.69-6.318,6.318-4.088,7.061-3.716,8.919-2.973h12.636l5.946,2.973,7.433,3.716,5.946,4.088,7.8,8.176,6.69,7.8,4.088,7.433,2.973,8.176,1.487,5.946v7.008l-1.487,2.124-1.168,4.035-1.805,4.46-3.716,6.371-3.4,4.672-5.1,5.309L208.881,491.361l-4.247,3.61-3.823,2.973-4.247,2.336-4.247,2.124-4.247,1.911-5.309,1.062h-5.1l-5.522-1.062-6.8-1.911-8.282-4.46-4.884-4.035-3.823-2.548-10.194-11.043-3.4-4.672-3.4-7.433-2.336-6.8a31.22,31.22,0,0,0,0-4.46,31.22,31.22,0,0,1,0-4.46l1.274-5.946,2.124-5.734,2.336-5.309,3.4-4.884Z" transform="translate(-75.94 -51.55)"/></g><g class="c" transform="matrix(1, 0, 0, 1, -53, -45.28)"><path class="b" d="M478.692,180.277l1.487,3.27.859,2.467.627,1.993.534,1.607.325,1.115.534,2.044.441,1.951.3,1.719.836,4.46.465,2.787.279,2.787.511,4,.209,1.858.321,2.434.539,4.41.743,6.194.5,4.856.2,3.266.116,2.067.163,2.694v2.021l.116,1.185v.65l.116,3.02.279,4.181.2,3.809v4.162l.121,9.193v5.342l-.121,3.02-.158,2.3-.372,4.2-.511,3.833-.372,3.02-.465,3.67-.557,3.438-.465,3.066-.557,3.9-.511,3.531-.7,4.367-.465,3.066-1.022,5.853-1.3,5.3-1.3,4.553-2.6,7.34-2.177,4.934-1.93,4.376-3.977,8.715-3.438,7.061-3.586,6.82-4.162,6.838-4.162,6.541-5.352,6.244-7.433,8.919-6.838,7.135-6.244,5.946-8.027,6.541-13.082,8.622-7.433,4.757-6.541,3.568-8.027,3.568-8.325,3.27-9.514,3.865-8.325,2.676-9.811,2.973-10.406,2.081-10.406,2.081-13.082,2.081-8.622,1.189-4.841.632-4.413.65-3.763.465-6.011.335H213.191l-1.059-.381-1.254-.836-.6-.511-.465-.6-.79-.743-.418-.836-.65-1.672-.232-1.208V451.3l.232-1.022.325-.883,1.115-1.44,1.124-1.282,48.165-51.138,3.066-2.838,3.647-3.02,1.812-1.185,1.928-1,3.345-1.161,2.927-.581.557-.07,2.044-.255h3.865l6.355-.093,5.644-.65,7.029-1.041,7.582-1.685,6.194-1.487,6.194-1.982,4.955-1.734,5.188-2.245,2.648-1.208,3.314-1.5,3.355-1.611L343,368.793l3.763-2.23,3.345-2.2,6.69-4.707,6.937-6.442,6.194-6.442,3.964-5.2,3.84-4.831,3.84-5.7,3.1-5.327,3.716-6.194L391.6,313.2l2.492-5.729.116-.3.4-1.4.719-2.5.418-1.9.139-1.208.109-1.287.125-1.275.186-2.973.534-5.079V268.171l-.094-3.112-.116-2.276-.161-1.487-.118-.836-.093-.72v-.418l.093-.511.118-.557.372-1.231.836-2.044,1.3-2.787,1.417-2.16.441-.581.325-.418.581-.72.952-1.161,1.672-1.928,2.95-3.229,3.244-3.492,6.194-6.194,6.38-6.5,6.008-6.628L469.525,177.3l.921-.6,1-.325h3.809l.79.163.418.3.929,1.115Z" transform="translate(-45.04 -13.15)"/></g></g></g></g></svg>